<svg width="74.306" height="58.197" viewBox="0 0 74.306 58.197" xmlns="http://www.w3.org/2000/svg"><g id="svgGroup" stroke-linecap="round" fill-rule="evenodd" font-size="9pt" stroke="#03120a" stroke-width="0.25mm" fill="#415775" style="stroke:#03120a;stroke-width:0.25mm;fill:#415775"><path d="M 33.75 0.695 L 37.361 0.695 L 37.361 14.445 L 33.75 14.445 Q 33.194 9.028 29.167 6.042 A 15.176 15.176 0 0 0 20.026 3.057 A 18.549 18.549 0 0 0 19.861 3.056 A 21.193 21.193 0 0 0 16.247 3.346 Q 13.359 3.846 11.25 5.209 Q 7.933 7.351 7.917 11.074 A 8.4 8.4 0 0 0 7.917 11.112 A 8.355 8.355 0 0 0 10.1 16.75 A 11.72 11.72 0 0 0 11.042 17.709 A 16.967 16.967 0 0 0 13.008 19.215 Q 16.563 21.598 23.75 24.723 Q 31.556 27.845 35.261 31.072 A 15.06 15.06 0 0 1 36.319 32.084 Q 39.861 35.834 39.861 41.389 A 17.737 17.737 0 0 1 39.024 46.968 A 14.393 14.393 0 0 1 34.375 53.681 A 19.765 19.765 0 0 1 22.665 58.152 A 25.267 25.267 0 0 1 21.181 58.195 A 31.504 31.504 0 0 1 13.994 57.409 A 25.018 25.018 0 0 1 7.639 55 A 22.517 22.517 0 0 1 6.287 54.15 Q 5.486 53.603 4.861 53.056 A 6.427 6.427 0 0 0 3.334 57.245 A 8.103 8.103 0 0 0 3.333 57.362 L 0 57.362 L 0 42.362 L 3.889 42.362 Q 5.278 48.056 9.861 51.528 A 16.444 16.444 0 0 0 16.054 54.38 Q 18.653 55 21.736 55 A 18.592 18.592 0 0 0 25.386 54.668 Q 27.432 54.258 28.963 53.34 A 8.387 8.387 0 0 0 31.806 50.556 A 6.852 6.852 0 0 0 32.598 47.929 A 8.475 8.475 0 0 0 32.639 47.084 Q 32.639 43.056 29.792 40.209 A 14.093 14.093 0 0 0 27.612 38.463 Q 25.229 36.882 21.482 35.417 A 58.377 58.377 0 0 0 20 34.862 A 86.012 86.012 0 0 1 14.523 32.622 Q 9.194 30.209 6.129 27.716 A 16.12 16.12 0 0 1 4.028 25.695 A 14.444 14.444 0 0 1 0.81 18.99 A 20.635 20.635 0 0 1 0.417 14.862 A 12.4 12.4 0 0 1 4.622 5.301 A 16.622 16.622 0 0 1 6.111 4.098 Q 11.806 0 20.278 0 A 31.637 31.637 0 0 1 24.929 0.319 Q 27.3 0.672 29.203 1.418 A 12.662 12.662 0 0 1 32.917 3.612 Q 33.75 2.362 33.75 0.695 Z M 60.417 22.362 L 60.417 48.473 A 11.662 11.662 0 0 0 60.629 50.805 Q 61.362 54.381 64.631 54.805 A 7.195 7.195 0 0 0 65.556 54.862 A 8.596 8.596 0 0 0 70.739 53.102 A 12.38 12.38 0 0 0 72.361 51.667 L 74.306 53.334 A 12.99 12.99 0 0 1 69.317 57.004 A 17.014 17.014 0 0 1 67.083 57.778 A 12.088 12.088 0 0 1 63.889 58.195 A 20.378 20.378 0 0 1 58.788 57.614 Q 52.234 55.914 50.987 49.242 A 18.58 18.58 0 0 1 50.694 45.834 L 50.694 22.362 L 46.111 22.362 L 46.111 19.445 L 50.694 19.445 L 50.694 8.195 A 20.135 20.135 0 0 0 57.986 6.789 A 24.942 24.942 0 0 0 60.417 5.695 L 60.417 19.445 L 72.639 19.445 L 72.639 22.362 L 60.417 22.362 Z" vector-effect="non-scaling-stroke"/></g></svg>